<svg width="205" height="63" viewBox="0 0 205 63" fill="none" xmlns="http://www.w3.org/2000/svg">
<path d="M42.7188 17.7148C43.1555 17.6933 43.5922 17.3064 43.585 16.9481C43.5707 16.5254 43.2056 16.0382 42.9121 16.0454C42.3681 16.0669 41.824 16.5254 41.8526 16.9266C41.8813 17.3279 42.3251 17.7291 42.7188 17.7148Z" fill="black"/>
<path d="M67.9674 31.9798C67.7168 31.5499 67.6453 31.0054 67.1155 30.769C67.0869 30.7546 67.0439 30.7045 67.0439 30.6758C67.1227 30.2674 66.7003 30.2961 66.5285 30.1026C66.4498 30.0167 66.3352 29.945 66.2636 29.8375C65.963 29.3647 65.5692 28.9993 65.0968 28.6912C64.8677 28.5479 64.6529 28.3688 64.4883 28.1323C64.4239 28.032 64.4668 27.8744 64.3451 27.8171C63.887 27.595 63.7509 27.0863 63.4073 26.7567C63.0924 26.4558 62.8848 26.0617 62.4839 25.8253C62.0758 25.5817 61.9183 25.0801 61.5389 24.7792C61.3098 24.6001 61.1738 24.3278 60.866 24.2275C60.687 24.1702 60.5367 24.0197 60.5081 23.7905C60.4938 23.683 60.4436 23.5612 60.3291 23.5325C60.1501 23.4824 60.0857 23.3463 60.007 23.2101C59.8996 23.0167 59.8065 22.8232 59.5631 22.7301C59.42 22.6728 59.2839 22.5653 59.1265 22.4936C58.9761 22.4292 58.8401 22.3217 58.8544 22.1426C58.8544 22.0064 58.7828 21.9348 58.7184 21.8345C58.475 21.4619 57.9954 21.3616 57.752 20.989C57.7305 20.9604 57.6804 20.9532 57.6446 20.9389C57.4728 20.8816 57.3654 20.7884 57.437 20.5878C57.48 20.4588 57.4155 20.3729 57.301 20.3299C56.9288 20.1937 56.5708 19.9573 56.1413 20.1221C56.0697 20.1508 56.0125 20.0863 55.948 20.0648C55.4612 19.9286 55.0102 19.6206 54.502 19.6062C53.9794 19.5919 53.5785 19.119 53.0345 19.291C53.0345 19.291 53.0201 19.2838 53.0058 19.2766C52.7409 19.119 52.4403 19.0832 52.1396 19.0402C51.8533 18.9972 51.5884 19.1119 51.3307 19.1907C51.1517 19.2408 51.1231 19.7925 51.2591 20.0075C51.5884 20.5591 52.204 20.5377 52.7123 20.7096C52.877 20.7669 53.106 20.7383 53.2421 20.8457C53.4497 21.0105 53.6787 21.0034 53.9078 21.0177C54.0939 21.032 54.2729 21.0249 54.4948 21.1467C54.0939 21.0893 53.8147 21.3258 53.464 21.3401C52.8483 21.3544 52.2542 21.6339 51.6314 21.6983C51.2233 21.7413 50.8582 21.9778 50.4287 21.9706C49.9992 21.9634 49.5625 22.0279 49.2475 22.379C49.2189 22.4077 49.1545 22.4148 49.1044 22.4077C48.7822 22.3862 48.4887 22.5223 48.188 22.6011C47.959 22.6584 47.7943 22.6298 47.6941 22.4077C47.6368 22.2859 47.5581 22.207 47.4364 22.1426C47.1858 22.0064 47.0928 21.4834 47.2932 21.3616C47.5581 21.2111 47.78 21.0177 47.9876 20.8027C48.1165 20.6666 48.3742 20.6881 48.4458 20.8457C48.5531 21.0965 48.7536 21.1467 48.9612 21.2183C49.1688 21.29 49.3835 21.3759 49.5339 21.118C49.677 20.8744 49.5768 20.6881 49.3764 20.5233C49.1473 20.3299 48.9683 20.0863 48.7321 19.8928C49.2261 20.0218 49.7272 20.0648 50.2211 20.1364C50.4931 20.1722 50.6793 20.0504 50.7652 19.7424C50.8153 19.5489 50.7938 19.3483 50.5862 19.2552C50.3929 19.162 50.1925 19.0689 49.9634 19.076C49.677 19.0904 49.4265 18.9829 49.1616 18.9041C49.0829 18.8826 48.9612 18.8468 48.997 18.7321C49.0328 18.6175 49.1473 18.6533 49.2261 18.682C49.7558 18.8754 50.2784 18.7035 50.8081 18.6676C51.1016 18.6461 51.2305 18.4384 51.1589 18.2019C51.0443 17.815 50.8367 17.6646 50.5504 17.7649C50.4573 17.7935 50.3714 17.8795 50.2712 17.815C50.0708 17.6789 49.8489 17.7434 49.6413 17.7577C49.1187 17.7935 48.9182 17.5929 48.9469 17.0771C48.9612 16.726 49.1545 16.3462 48.7607 16.0597C48.7178 16.0238 48.7106 15.9092 48.7178 15.8304C48.7894 15.3647 48.3097 15.0208 48.4243 14.5479C48.4243 14.5264 48.3956 14.4906 48.3742 14.4762C48.0162 14.2685 47.9876 13.8672 47.8444 13.5448C47.78 13.3872 47.7084 13.2439 47.5867 13.1221C47.4221 12.9645 47.329 12.7997 47.5509 12.6062C47.6297 12.5346 47.5867 12.4414 47.5509 12.3555C47.3218 11.8468 47.3075 11.3237 47.4006 10.772C47.4364 10.5786 47.5581 10.3708 47.4507 10.1487C47.2932 9.81913 47.3218 9.38924 46.9496 9.16713C46.9281 9.1528 46.921 9.11698 46.9138 9.08832C46.8637 8.75157 46.6131 8.57962 46.3554 8.41483C46.019 8.20705 45.6682 8.04942 45.253 8.09241C44.981 8.12107 44.6731 8.02793 44.5586 8.4005C44.5371 8.46498 44.4727 8.48647 44.4154 8.49364C43.8571 8.55812 43.5707 9.00234 43.2343 9.36058C43.1627 9.43939 43.1126 9.54686 42.9837 9.55403C42.8262 9.56119 42.7475 9.67583 42.6616 9.7833C42.5685 9.9051 42.5041 10.1344 42.3537 10.12C42.0244 10.0842 41.7596 10.3063 41.4518 10.3135C41.2585 10.3135 41.058 10.2633 40.8647 10.2705C40.3207 10.2777 39.8267 10.6144 39.2684 10.5356C38.9605 10.4855 38.7529 10.7362 38.4952 10.8365C38.2232 10.944 37.9727 10.9727 37.7651 10.7362C37.6434 10.5929 37.5073 10.4711 37.3642 10.3493C37.0277 10.0627 36.7628 9.70449 36.4121 9.42506C36.0685 9.1528 35.6389 9.06682 35.2667 8.88054C34.9302 8.70858 34.873 8.67992 35.0806 8.37184C35.1378 8.28586 35.0949 8.22138 35.0519 8.14973C35.0018 8.06375 34.9445 7.99927 34.9302 7.88463C34.8944 7.49057 34.5795 7.16099 34.6582 6.73827C34.6582 6.72394 34.6439 6.69528 34.6296 6.68811C34.2287 6.3657 34.2931 5.8355 34.0712 5.41994C33.8564 5.01872 33.9853 4.51002 34.2072 4.08729C34.3074 3.89384 34.4148 3.6789 34.3719 3.47112C34.2931 3.13438 34.3504 2.79763 34.3361 2.46805C34.3074 1.63693 34.0282 0.906126 33.5128 0.26846C33.4484 0.189647 33.3696 0.117999 33.2694 0.110834C32.8399 0.0750105 32.4175 -0.0611205 31.9809 0.0320217C31.8377 0.0678457 31.7303 0.175318 31.58 0.203977C31.2364 0.261295 30.9357 0.461909 30.6279 0.605205C30.2055 0.805819 29.9335 1.22138 29.6042 1.55812C29.4968 1.66559 29.4038 1.77307 29.2319 1.75874C28.9599 1.74441 28.7237 1.62261 28.4803 1.5223C28.108 1.36467 27.7573 1.27153 27.385 1.49364C27.3277 1.52946 27.2562 1.55812 27.1917 1.55812C26.8696 1.57962 26.5618 1.62261 26.2325 1.54379C26.0463 1.5008 25.8029 1.45065 25.6097 1.62261C25.5452 1.67992 25.4593 1.69425 25.3877 1.65126C25.2088 1.53663 25.1014 1.6441 24.9725 1.74441C24.6289 2.00234 24.2352 2.14563 23.8057 2.08832C23.6339 2.06682 23.548 2.06682 23.4334 2.21012C23.233 2.46805 22.9323 2.45372 22.8321 2.16713C22.7462 1.93069 22.6174 1.7874 22.4097 1.67992C22.2952 1.62261 22.2523 1.50797 22.1878 1.40766C21.9588 1.05659 21.8013 0.691182 21.3073 0.547887C20.6201 0.340108 19.9615 0.0678457 19.217 0.203977C19.1025 0.225471 19.0595 0.289954 18.9879 0.347273C18.6658 0.590875 18.5942 1.00643 18.3222 1.29302C18.1861 1.43632 18.0859 1.65126 18.1002 1.91636C18.1146 2.14563 18.2434 2.44656 18.1432 2.59702C17.8855 2.96959 18.0215 3.35648 18.0573 3.70756C18.1002 4.17327 18.1217 4.64615 18.179 5.11902C18.1861 5.18351 18.179 5.24799 18.136 5.28381C17.9499 5.42711 17.907 5.61339 17.9356 5.8355C17.9428 5.89282 17.9141 5.9788 17.8712 6.02179C17.6421 6.26539 17.549 6.5878 17.3915 6.8744C17.2627 7.11083 17.413 7.41176 17.1839 7.61953C17.0909 7.70551 17.1124 7.82731 17.098 7.94911C17.0694 8.26437 17.1124 8.60828 17.0193 8.8877C16.9262 9.16713 16.8761 9.43223 16.8976 9.71882C16.9191 9.99108 16.7401 10.1989 16.4895 10.1845C16.196 10.163 15.9312 10.3063 15.6448 10.2848C15.4945 10.2777 15.3298 10.3422 15.1938 10.4066C14.9648 10.5069 14.886 10.7291 14.9218 10.944C14.9504 11.1804 15.158 11.2091 15.3585 11.1876C15.745 11.1446 16.1459 11.2521 16.5182 11.03C16.647 10.9512 16.869 11.0013 16.9549 11.1231C17.0551 11.2736 16.8761 11.3882 16.7616 11.4742C16.6542 11.553 16.5253 11.6103 16.3965 11.6605C16.1674 11.7536 15.9312 11.8109 15.6878 11.8683C15.4587 11.9184 15.1724 12.3196 15.2081 12.4844C15.2511 12.6707 15.5732 12.771 15.8811 12.6922C15.9169 12.685 15.967 12.6779 15.9956 12.6564C16.3249 12.4199 16.7473 12.4486 17.0909 12.2408C17.234 12.1548 17.3343 12.2552 17.413 12.3626C17.5061 12.4916 17.3772 12.5346 17.3128 12.5991C17.2555 12.6492 17.1839 12.6922 17.1124 12.7209C16.6542 12.9072 16.4251 13.294 16.2247 13.7024C16.1602 13.8386 16.2104 13.946 16.3249 14.0392C16.4609 14.1538 16.5826 14.118 16.7329 14.0535C17.1553 13.8816 17.4416 13.4732 17.8998 13.3657C18 13.3442 18.1074 13.2869 18.1647 13.3944C18.315 13.6666 18.5942 13.7598 18.8233 13.9174C18.9879 14.032 19.1955 14.2541 19.174 14.3616C19.081 14.7557 19.0595 15.2214 18.723 15.4936C18.4653 15.7014 18.4081 15.945 18.3723 16.2388C18.3007 16.8191 18.2506 16.8621 17.685 16.8908C17.6063 16.8908 17.5276 16.9051 17.4488 16.9266C17.1052 17.0054 16.7687 17.1129 16.418 17.0627C16.196 17.0341 15.9884 17.0412 15.7808 17.1272C15.473 17.2562 15.1509 17.292 14.8287 17.3422C14.6927 17.3636 14.5138 17.3636 14.435 17.4496C13.9554 17.9512 13.3469 17.4926 12.8315 17.6932C12.8315 17.6932 12.81 17.6932 12.8028 17.6861C12.6955 17.6073 12.5952 17.6287 12.5093 17.7219C12.4163 17.815 12.2946 17.8222 12.18 17.8509C11.7792 17.9368 11.3711 18.0085 10.9702 18.0801C10.7769 18.116 10.6266 18.2879 10.419 18.2736C9.89643 18.2449 9.42396 18.424 8.95149 18.6175C8.84411 18.6676 8.73673 18.7035 8.60788 18.6748C8.18552 18.5888 7.78463 18.7321 7.39807 18.8253C7.11888 18.8897 7.00434 19.1907 6.89696 19.4629C6.82537 19.6421 6.96139 19.7137 7.01866 19.8283C7.06161 19.9215 7.0974 20.029 7.02582 20.1078C6.75379 20.4015 6.70368 20.8242 6.39585 21.1037C6.20973 21.2685 6.0236 21.4834 5.98781 21.77C5.97349 21.8846 5.88043 21.9563 5.816 22.0423C5.5225 22.4578 5.13593 22.8017 4.9856 23.3104C4.93549 23.4752 4.83527 23.6113 4.67778 23.726C4.52029 23.8478 4.38427 23.9911 4.28405 24.206C4.17667 24.4496 4.06929 24.7291 3.88317 24.944C3.58251 25.2807 3.31048 25.6318 3.09572 26.0259C2.89528 26.377 2.72347 26.7567 2.44428 27.0433C2.20805 27.2869 2.10067 27.5663 2.01476 27.8601C1.93602 28.118 1.82148 28.3473 1.57808 28.4619C1.37048 28.5551 1.27742 28.7055 1.21299 28.899C1.13425 29.1139 1.06266 29.3288 0.969599 29.5366C0.847902 29.8017 0.776316 30.0883 0.497128 30.2674C0.0747681 30.5469 -0.0111357 30.9839 0.00318162 31.4568C0.00318162 31.5929 -0.025453 31.7649 0.0890854 31.8509C0.425542 32.1231 0.633143 32.5602 1.14141 32.6247C1.32753 32.6461 1.51366 32.7536 1.67115 32.8683C2.0434 33.1262 2.44428 33.3268 2.8738 33.4916C2.98118 33.5346 3.05277 33.6062 3.13151 33.6707C3.34627 33.8355 3.51808 34.0791 3.74715 34.1866C4.21247 34.4015 4.74221 34.4732 5.13593 34.8242C5.5225 35.161 6.04508 35.1252 6.46028 35.3974C6.78958 35.6124 6.97571 35.8345 6.90412 36.2357C6.86833 36.4292 6.81106 36.6154 6.78242 36.8161C6.68936 37.6543 6.95423 38.4855 6.86117 39.3309C6.83253 39.6032 6.93991 39.8969 6.77526 40.1692C6.76095 40.1978 6.77526 40.248 6.77526 40.2838C6.86117 40.771 6.81821 41.2797 7.00434 41.7526C7.02582 41.8099 7.0115 41.8959 6.98286 41.9532C6.82537 42.2255 6.89696 42.4906 6.93275 42.7772C6.96139 43.0494 7.0974 43.293 7.08309 43.5725C7.06877 44.0668 7.04729 44.554 6.94707 45.0341C6.91844 45.1702 6.95423 45.3422 7.05445 45.4568C7.23342 45.6646 7.22626 45.901 7.17615 46.1231C7.11888 46.3739 7.12604 46.6032 7.20478 46.8396C7.25489 46.9901 7.31216 47.1477 7.24773 47.3053C7.14035 47.5847 7.18331 47.8857 7.12604 48.1722C7.07593 48.4302 7.31216 48.6809 7.22626 48.8816C7.12604 49.1252 7.21194 49.2828 7.26921 49.4762C7.43386 50.0924 7.72736 50.2859 8.34301 50.1641C8.44323 50.1426 8.52197 50.1712 8.5864 50.2429C8.84411 50.508 9.23784 50.6011 9.4168 50.9593C9.45976 51.0453 9.55998 51.0811 9.6602 51.1098C9.80337 51.1528 10.011 51.1886 10.0539 51.2889C10.2186 51.6902 10.6123 51.7618 10.913 51.9051C11.3783 52.1272 11.7505 52.4783 12.2302 52.6789C12.5451 52.8079 12.8028 53.0873 13.1107 53.2664C13.2753 53.3596 13.4686 53.3309 13.6261 53.4742C13.9411 53.7679 14.2059 54.162 14.7142 54.1692C14.7572 54.1692 14.8073 54.2122 14.8431 54.2408C15.2153 54.5847 15.6663 54.8068 16.103 55.0433C16.2462 55.1149 16.2891 55.294 16.4609 55.3442C16.7473 55.4302 17.0336 55.5162 17.1267 55.8672C17.1338 55.9102 17.2126 55.9532 17.2627 55.9675C17.728 56.075 18.1289 56.3473 18.5727 56.5192C18.9163 56.6482 19.2743 56.8918 19.5391 57.207C19.6322 57.3217 19.7396 57.4291 19.8971 57.4578C20.2192 57.5151 20.4196 57.7444 20.6272 57.9665C20.6845 58.031 20.7203 58.0811 20.8134 58.0811C21.3288 58.0811 21.7297 58.4036 22.0303 58.7331C22.3954 59.1344 22.8607 59.2705 23.3117 59.4066C23.6196 59.4998 23.8415 59.6502 23.9918 59.8652C24.1779 60.1303 24.4142 60.2091 24.6862 60.2592C24.9725 60.3166 25.1945 60.51 25.352 60.6963C25.488 60.8539 25.624 60.9614 25.7958 61.0402C25.9891 61.1262 26.2038 61.1763 26.347 61.334C26.4902 61.4916 26.6548 61.5632 26.8481 61.6349C27.1989 61.7639 27.4566 62.0576 27.8217 62.1651C27.8288 62.1651 27.836 62.1794 27.8432 62.1866C28.2727 62.6093 28.8024 62.8529 29.3823 62.989C29.5684 63.032 29.9908 62.7669 30.091 62.5878C30.1984 62.3944 30.3057 62.2439 30.5921 62.2797C30.8641 62.3155 31.1075 62.1579 31.3437 62.0003C31.6015 61.8283 31.8448 61.5561 32.1527 61.5632C32.5178 61.5704 32.7755 61.4128 33.0833 61.2766C33.4198 61.1262 33.6846 60.7966 34.0998 60.8253C34.3289 60.8396 34.4076 60.5387 34.6081 60.553C35.2237 60.596 35.5745 60.0586 36.1042 59.9153C36.3333 59.8508 36.5481 59.6789 36.7557 59.6216C37.1423 59.5141 37.4286 59.249 37.7865 59.0985C38.2232 58.9194 38.6527 58.7045 39.1037 58.5755C39.3829 58.4967 39.6048 58.3462 39.8339 58.2173C40.0701 58.0812 40.3135 57.9307 40.5498 57.902C41.0151 57.8447 41.3515 57.5295 41.7596 57.3718C41.9743 57.293 42.139 57.0781 42.4039 57.2285C42.454 57.2572 42.5327 57.2285 42.5685 57.1856C42.6902 57.0279 42.8763 56.9921 43.0338 56.9061C43.2128 56.813 43.4275 56.8058 43.5707 56.6768C43.8929 56.4046 44.3367 56.3544 44.6445 56.075C44.8736 55.8672 45.1599 55.946 45.4105 55.8744C45.8901 55.7311 46.3411 55.5735 46.6776 55.1866C46.7205 55.1364 46.8064 55.0791 46.8565 55.0934C47.057 55.1436 47.193 55.0075 47.3505 54.9501C47.6368 54.8498 47.9017 54.6492 48.2382 54.6994C48.3312 54.7137 48.367 54.6206 48.4171 54.5632C48.6748 54.248 48.9755 54.0044 49.4122 54.0474C49.8059 54.0832 50.1209 53.9399 50.4001 53.682C50.758 53.3524 51.1589 53.1446 51.66 53.1446C51.796 53.1446 51.9535 53.1303 52.0537 53.03C52.3329 52.7219 52.7052 52.5929 53.0846 52.4926C53.3638 52.421 53.6931 52.4281 53.8577 52.1559C54.0367 51.8621 54.2872 51.9123 54.5449 51.9123C54.638 51.9123 54.7167 51.9123 54.7883 51.8406C55.0603 51.5898 55.4326 51.5397 55.7619 51.4179C55.9695 51.3391 56.1914 51.2818 56.3203 51.1241C56.5565 50.8375 56.9216 50.7731 57.2079 50.6656C57.4943 50.5581 57.8307 50.4291 58.1672 50.422C58.2746 50.422 58.339 50.3503 58.4106 50.2787C58.6826 50.0136 58.6612 49.6983 58.6898 49.3401C58.7256 48.7311 58.6898 48.1293 58.6683 47.5274C58.6468 47.0044 58.6898 46.4885 58.6683 45.9655C58.654 45.6717 58.6325 45.3708 58.6826 45.0627C58.7471 44.6543 58.7471 44.2173 58.6683 43.8232C58.5824 43.422 58.4464 43.0351 58.4392 42.6124C58.4392 42.3544 58.4965 42.0893 58.4679 41.8601C58.4178 41.4732 58.4178 41.0934 58.4464 40.7065C58.4607 40.5131 58.475 40.3196 58.3605 40.1334C58.3104 40.0474 58.2961 39.9256 58.3247 39.8181C58.4249 39.4455 58.2388 39.0658 58.339 38.6932C58.3605 38.6073 58.339 38.5141 58.2746 38.4425C58.2173 38.3708 58.2531 38.3063 58.2531 38.2275C58.2674 37.8549 58.3891 37.4537 58.2961 37.1241C58.1958 36.7444 58.2961 36.336 58.1028 35.9778C58.0455 35.8703 58.1457 35.7987 58.2316 35.7342C58.3462 35.6482 58.4965 35.6124 58.6254 35.6124C59.1265 35.6267 59.5202 35.4046 59.8853 35.0893C60.0356 34.9604 60.2003 34.8314 60.4007 35.0249C60.4651 35.0893 60.551 35.0177 60.6226 35.0105C60.866 34.9962 61.0307 34.6881 61.2669 34.7956C61.6177 34.9604 61.9255 34.7454 62.0973 34.6021C62.5769 34.2081 63.1425 34.2009 63.6794 34.0433C63.7295 34.0289 63.8082 34.0433 63.8512 34.0648C63.9872 34.1436 64.0874 34.0719 64.2091 34.0289C64.567 33.9 64.8247 33.5417 65.2471 33.5776C65.4404 33.5991 65.605 33.5274 65.7697 33.4056C66.0274 33.205 66.3066 33.0545 66.6645 33.1477C66.7719 33.1763 66.8936 33.1262 66.9938 33.0474C67.1656 32.9184 67.3661 32.8038 67.5379 32.7393C67.7312 32.6676 67.7884 32.6032 67.8385 32.4312C67.8815 32.2736 68.0605 32.1589 67.9388 31.9512L67.9674 31.9798ZM41.9672 15.945C42.0316 15.9092 42.0817 15.8375 42.139 15.7874C42.232 15.7157 42.318 15.5868 42.4396 15.6154C42.8047 15.7157 43.2199 15.6154 43.5063 16.0167C43.7354 16.3319 44.0002 16.6042 43.9788 17.0269C43.943 17.3923 43.7783 17.7935 43.492 17.9297C43.1627 18.0873 42.7833 18.2664 42.318 18.0945C41.7954 17.8938 41.6594 17.464 41.4732 17.0556C41.3229 16.7188 41.6164 16.1313 41.96 15.9379L41.9672 15.945ZM36.6555 16.8048C36.813 16.5827 37.0563 16.4251 37.1279 16.1385C37.1494 16.0597 37.2425 16.0382 37.3212 16.0167C37.8939 15.8519 38.4165 15.859 38.9104 16.2818C39.1825 16.5182 39.0822 16.8335 39.2111 17.0699C39.5189 17.6144 38.9033 17.8437 38.8388 18.2521C38.8317 18.3094 38.6814 18.3596 38.5883 18.3811C38.302 18.4599 38.0084 18.4885 37.7364 18.6247C37.5789 18.7035 37.4286 18.5888 37.3141 18.4814C37.0205 18.2019 36.6698 17.9512 36.7056 17.4711C36.7056 17.421 36.6626 17.3636 36.6268 17.3135C36.5051 17.1344 36.5266 16.9767 36.6555 16.7976V16.8048ZM11.2781 19.6134C12.0011 19.7209 12.6811 19.4701 13.3827 19.3984C13.848 19.3483 14.299 19.2408 14.7643 19.1692C15.337 19.0832 15.9455 19.076 16.4538 18.6891C16.6614 18.5315 16.9405 18.6891 17.1911 18.6247C17.2698 18.6032 17.3987 18.7321 17.3701 18.8539C17.2627 19.248 17.1983 19.6421 17.0264 20.0289C16.9262 20.2582 16.7687 20.5233 16.826 20.8242C16.869 21.0965 16.8618 21.3759 16.869 21.6482C16.869 21.727 16.8904 21.8273 16.7831 21.8416C16.6828 21.856 16.6971 21.7628 16.6828 21.6983C16.6614 21.6052 16.5826 21.5622 16.5039 21.5694C16.103 21.5837 15.7307 21.3616 15.3227 21.4118C15.2583 21.4189 15.2153 21.3688 15.1652 21.3401C14.7572 21.1108 14.3921 20.8027 13.848 20.8457C13.4471 20.8744 13.1178 20.5878 12.8386 20.3012C12.7456 20.2081 12.6525 20.1722 12.5237 20.1651C12.1586 20.1436 11.8436 20.0003 11.5716 19.7639C11.4857 19.685 11.3926 19.7065 11.2924 19.728C11.2208 19.7424 11.1062 19.7925 11.1062 19.6707C11.1062 19.5346 11.2136 19.6134 11.2852 19.6134H11.2781ZM7.93496 34.3227C7.82758 34.2511 7.66294 34.2224 7.52692 34.1937C7.14751 34.1078 6.88264 33.857 6.61777 33.6134C6.54619 33.5489 6.48176 33.4988 6.3887 33.4916C6.19541 33.4773 6.03076 33.4271 5.92338 33.2408C5.83748 33.1047 5.67999 33.2193 5.56545 33.1692C5.15741 33.0044 4.73505 32.8683 4.3628 32.6318C4.25542 32.5602 4.1552 32.4814 4.01202 32.51C3.9476 32.5243 3.90464 32.4885 3.86169 32.4384C3.59682 32.0873 3.30332 31.8007 2.80937 31.9082C2.7521 31.9225 2.70915 31.8938 2.68767 31.8509C2.59461 31.6932 2.43712 31.6789 2.27963 31.6502C2.05055 31.6144 1.96465 31.4998 1.97897 31.292C2.07919 31.0126 2.05055 30.6472 2.37269 30.4179C2.52303 30.3104 2.46576 30.074 2.5445 29.902C2.60177 29.7731 2.67336 29.6513 2.79505 29.6441C2.97402 29.6298 3.02413 29.508 3.08856 29.3933C3.38922 28.8273 3.66841 28.2541 4.08361 27.7454C4.28405 27.5018 4.34132 27.1651 4.49881 26.8785C4.64199 26.6277 4.79948 26.4199 5.00708 26.2193C5.23615 26.0044 5.4366 25.7321 5.46523 25.3954C5.47955 25.1948 5.57977 25.073 5.70862 24.9368C5.96634 24.6574 6.23836 24.3923 6.34574 23.9982C6.41017 23.7475 6.74663 23.6615 6.86117 23.4107C6.87548 23.3749 6.93991 23.3534 6.93991 23.3248C6.88264 22.8089 7.5126 22.6083 7.47681 22.0924C7.46965 21.9419 7.58419 21.813 7.74884 21.7342C7.9636 21.6267 8.06382 21.3903 8.14972 21.1968C8.38596 20.6881 8.4647 20.638 8.98729 20.8601C9.1233 20.9174 9.27363 20.946 9.4168 20.9604C9.68167 20.9819 9.85348 21.1467 10.0682 21.2756C10.2973 21.4189 10.5264 21.6124 10.8772 21.5551C11.1062 21.5192 11.364 21.6697 11.5787 21.8273C11.6646 21.8918 11.7434 21.9921 11.8579 21.9706C12.1156 21.9348 12.3017 22.0064 12.4091 22.25C12.4234 22.2787 12.4807 22.3145 12.5093 22.3074C12.9532 22.1999 13.2753 22.6369 13.7192 22.5725C13.9554 22.5366 14.1129 22.7014 14.299 22.8161C14.5853 22.988 14.9146 23.0668 15.2368 23.1098C15.5446 23.1528 15.6949 23.4251 15.9598 23.5325C16.1817 23.6257 16.4323 23.6687 16.647 23.7188C17.098 23.8335 17.4631 24.0914 17.8783 24.2418C18.0573 24.3063 18.2291 24.4425 18.4367 24.2992C18.451 24.292 18.4868 24.2777 18.494 24.2848C18.8018 24.6001 19.2528 24.5356 19.6179 24.7219C19.9257 24.8795 20.1619 25.2163 20.5986 25.1303C20.8205 25.0873 21.0353 25.2521 21.2572 25.3381C21.5937 25.4742 21.9158 25.6748 22.2737 25.7393C22.4455 25.7679 22.5744 25.8539 22.7104 25.9542C22.8894 26.0832 23.0898 26.1907 23.3404 26.162C23.548 26.1405 23.7556 26.162 23.8701 26.3913C23.8773 26.4056 23.8988 26.4343 23.9131 26.4343C24.45 26.4486 24.8222 26.9716 25.3877 26.9C25.6455 26.8713 25.9032 26.9573 26.1322 27.0648C26.39 27.1866 26.6477 27.2582 26.9197 27.2869C26.9555 27.2869 27.0128 27.2869 27.0342 27.3012C27.4208 27.6308 27.9219 27.6881 28.3657 27.8816C28.5877 27.9819 28.874 27.8816 29.0458 28.1108C29.0745 28.1467 29.189 28.1538 29.1317 28.2326C28.8955 28.5407 28.7666 28.9419 28.4373 29.1497C27.972 29.4435 27.7358 29.8662 27.5711 30.3606C27.5139 30.5254 27.3421 30.6543 27.2275 30.7976C27.1774 30.8621 27.0843 30.9194 27.0843 30.9767C27.0843 31.3708 26.7193 31.4783 26.526 31.7291C26.2325 32.1088 25.9461 32.5028 25.7099 32.9184C25.5667 33.1692 25.3949 33.377 25.173 33.5346C25.037 33.6349 24.9797 33.7209 25.0441 33.8713C25.1086 34.0218 25.0298 34.1078 24.9153 34.1937C24.45 34.5162 24.2066 35.032 23.8415 35.4476C23.7413 35.555 23.7771 35.7485 23.6983 35.8918C23.6267 36.0208 23.5838 36.1569 23.412 36.1999C23.3117 36.2214 23.2831 36.3145 23.2688 36.4077C23.19 36.8805 22.8965 37.1958 22.5243 37.4609C22.3596 37.5827 22.2379 37.6973 22.2093 37.9481C22.1807 38.2204 22.0375 38.5213 21.7297 38.6431C21.5722 38.7076 21.5364 38.8222 21.4648 38.9583C21.3216 39.2521 21.2357 39.6103 20.8563 39.725C20.7489 39.7536 20.7132 39.8468 20.6845 39.9471C20.6416 40.1334 20.5485 40.291 20.4483 40.4486C20.3266 40.6492 20.2192 40.5847 20.0617 40.5131C19.5463 40.2695 19.1382 39.8396 18.5656 39.6748C18.2363 39.5817 17.9284 39.3739 17.6135 39.2163C17.4059 39.1088 17.2126 39.0085 16.9835 38.9368C16.6757 38.8437 16.4681 38.5643 16.2032 38.378C16.0672 38.2848 15.9383 38.2132 15.7737 38.2132C15.4945 38.2132 15.2583 38.1272 15.0721 37.9123C14.9075 37.7188 14.6498 37.6687 14.435 37.554C14.0341 37.3391 13.5975 37.1815 13.1894 36.9665C12.9174 36.8232 12.6167 36.6871 12.3447 36.5295C11.951 36.3002 11.4857 36.2644 11.1134 35.9491C10.913 35.7843 10.6051 35.684 10.3832 35.4977C10.326 35.4476 10.2544 35.4762 10.1828 35.4762C9.83916 35.4906 9.63872 35.3616 9.51702 35.0392C9.49555 34.9747 9.46691 34.9317 9.40249 34.9174C8.87991 34.8171 8.40743 34.6093 7.9636 34.3155L7.93496 34.3227ZM29.2105 34.0576C29.2534 34.3872 29.2606 34.7096 29.1317 35.0177C29.0673 35.1825 29.0458 35.3258 29.1174 35.4762C29.2749 35.8273 29.2248 36.1856 29.1818 36.5438C29.1532 36.7874 29.1389 37.0238 29.2105 37.2746C29.2821 37.511 29.3608 37.7475 29.1747 38.0197C29.0601 38.1917 29.0172 38.4496 29.1102 38.7004C29.2821 39.1804 29.1102 39.682 29.1532 40.1763C29.189 40.6349 29.1102 41.1006 29.0673 41.5591C29.0458 41.7956 28.8669 42.0249 28.9957 42.2756C29.1747 42.6339 29.0601 42.9993 29.0243 43.3647C29.0172 43.4506 29.0387 43.5223 29.0673 43.5939C29.1031 43.6871 29.1317 43.7874 29.0673 43.8734C28.874 44.1026 28.9671 44.3534 28.9742 44.6113C28.9957 45.1272 29.2749 45.6359 29.1604 46.1446C29.0601 46.5888 29.146 47.0402 28.9886 47.4701C28.9313 47.6206 28.9456 47.8642 29.0315 47.986C29.2534 48.2869 29.0172 48.5376 28.9742 48.7884C28.917 49.118 28.8382 49.4834 28.9456 49.7557C29.1389 50.2572 29.0816 50.7301 29.0458 51.2244C29.0243 51.5039 29.0387 51.812 29.01 52.0771C28.9742 52.4711 29.0601 52.8222 29.1174 53.1948C29.146 53.3739 29.1389 53.553 28.9456 53.6676C28.8597 53.7178 28.8096 53.8181 28.8669 53.8969C29.0888 54.1907 28.9384 54.4844 28.8812 54.771C28.8167 55.1364 28.8812 55.4947 28.9313 55.8457C28.9885 56.3043 28.9026 56.7413 28.917 57.1856C28.9313 57.6799 28.7809 58.1815 28.9456 58.6758C29.0172 58.8836 28.9957 59.1415 28.9742 59.3636C28.917 59.8795 28.9026 60.467 29.0315 60.9757C28.6593 60.9327 28.5376 60.5673 28.2297 60.4599C28.0866 60.4097 27.9577 60.3166 27.7931 60.3166C27.6714 60.3166 27.5711 60.2378 27.4852 60.1518C27.3492 60.0156 27.206 59.9153 26.9984 59.9225C26.8266 59.9225 26.6978 59.815 26.6691 59.6359C26.6477 59.5069 26.5904 59.421 26.4544 59.3851C26.2396 59.3278 26.0607 59.1917 25.8745 59.0699C25.6383 58.9051 25.3949 58.7117 25.1372 58.6185C24.8437 58.5182 24.6647 58.2889 24.407 58.16C23.7914 57.8519 23.2831 57.3575 22.603 57.1641C22.5601 57.1497 22.5028 57.1211 22.4885 57.0781C22.3382 56.727 22.0303 56.6124 21.7082 56.5049C21.5937 56.4691 21.5078 56.3544 21.4075 56.2756C21.1641 56.075 20.8492 56.1037 20.57 55.9962C20.2622 55.8744 20.0259 55.6666 19.8112 55.4445C19.532 55.1651 19.2456 54.943 18.8447 54.8857C18.6873 54.8642 18.587 54.7352 18.4797 54.642C18.3436 54.5131 18.1933 54.3913 18.0287 54.3125C17.5633 54.0975 17.1983 53.682 16.6614 53.6103C16.6184 53.6103 16.5755 53.5602 16.5468 53.5315C16.0386 53.03 15.3871 52.7147 14.7715 52.3851C14.4279 52.206 14.0771 51.9839 13.7335 51.8549C13.1966 51.6615 12.8673 51.1815 12.3375 51.0167C11.9152 50.8877 11.6431 50.4865 11.1993 50.3933C11.142 50.379 11.0848 50.3217 11.0347 50.2715C10.8485 50.0637 10.6624 49.8918 10.3546 49.8631C10.147 49.8416 9.96802 49.6625 9.80337 49.5479C9.5385 49.3544 9.245 49.2756 8.94433 49.1968C8.76537 49.1467 8.66515 48.8887 8.78684 48.6809C8.89422 48.5018 8.92286 48.3657 8.794 48.1722C8.72241 48.0648 8.75105 47.8857 8.74389 47.7352C8.7081 47.0259 8.64367 46.3237 8.55061 45.6216C8.52197 45.4425 8.52197 45.2705 8.5864 45.0986C8.70094 44.7905 8.54345 44.4752 8.57924 44.16C8.61504 43.8375 8.69378 43.4936 8.44323 43.207C8.5864 42.942 8.41459 42.6983 8.40028 42.4476C8.38596 42.1753 8.50766 41.8386 8.42891 41.6523C8.19268 41.1436 8.39312 40.6277 8.34301 40.1262C8.2929 39.6175 8.02803 39.0945 8.23563 38.5571C8.27858 38.4496 8.22847 38.3493 8.17836 38.249C8.01371 37.9123 7.95644 37.5684 8.13541 37.2244C8.22847 37.0453 8.11393 36.9164 8.05666 36.7802C7.99223 36.6369 7.9636 36.5008 8.07098 36.4005C8.19983 36.2859 8.27858 36.4292 8.39312 36.4936C8.87991 36.7946 9.35954 37.16 9.88928 37.3319C10.7626 37.6257 11.5358 38.0914 12.3518 38.4783C12.5738 38.5786 12.6883 38.8079 12.9174 38.8938C13.1679 38.987 13.4113 39.0873 13.6547 39.1876C13.7192 39.2163 13.7979 39.2306 13.8337 39.2807C14.12 39.6032 14.5281 39.6103 14.886 39.7536C15.2296 39.8897 15.6019 40.0402 15.831 40.3626C15.8882 40.4486 15.9598 40.4629 16.06 40.4629C16.2891 40.4629 16.4967 40.5059 16.6399 40.7352C16.7687 40.9286 17.0336 40.8857 17.234 40.9501C17.728 41.1006 18.2219 41.3227 18.5512 41.6666C18.8376 41.9675 19.1454 41.9317 19.4389 42.0535C19.5964 42.118 19.7897 42.161 19.9042 42.2828C20.2192 42.6267 20.5413 42.4547 20.9064 42.3974C21.4362 42.3186 21.6295 41.9819 21.8227 41.5735C22.0447 41.0934 22.4169 40.6994 22.5887 40.1978C22.603 40.1548 22.646 40.1047 22.6818 40.0904C23.054 39.9327 23.1757 39.596 23.2759 39.2521C23.3332 39.0515 23.4263 38.9153 23.641 38.8723C23.7269 38.8509 23.7985 38.8079 23.8272 38.7004C23.9775 38.0556 24.3927 37.5469 24.7435 37.0095C24.8866 36.7874 25.0227 36.5151 25.2374 36.3933C25.5739 36.1927 25.7743 35.9133 25.9032 35.5765C26.0106 35.29 26.2969 35.1538 26.3828 34.8457C26.4902 34.4445 26.8839 34.2081 27.0271 33.8212C27.0271 33.8068 27.0486 33.7782 27.0629 33.7782C27.4566 33.6564 27.4709 33.3125 27.5353 32.9829C27.5783 32.7536 27.7215 32.5315 27.9219 32.4384C28.2226 32.2951 28.3085 32.0013 28.4946 31.7864C28.8096 31.421 29.0029 30.9839 29.2677 30.4967C29.368 30.7905 29.2677 30.9911 29.2677 31.1845C29.2749 31.815 29.2176 32.4384 29.2033 33.0689C29.1961 33.4056 29.1818 33.7495 29.2248 34.0863L29.2105 34.0576ZM29.7545 26.7209C29.2749 26.5847 28.7809 26.4486 28.33 26.2408C28.108 26.1405 27.8575 26.033 27.6714 25.8826C27.4208 25.6676 27.1273 25.7321 26.8624 25.6605C26.4401 25.5458 26.0535 25.3667 25.7099 25.1016C25.445 24.901 25.1229 24.8222 24.8222 24.7004C24.7936 24.6932 24.7578 24.6789 24.7363 24.7004C24.2925 24.9942 23.9775 24.5858 23.6124 24.4783C23.4835 24.4425 23.4478 24.206 23.2616 24.1559C22.8894 24.0699 22.5529 23.8335 22.152 23.8549C22.0733 23.8549 21.9945 23.8478 21.9301 23.7976C21.4505 23.4895 20.8921 23.3821 20.3624 23.1958C19.9185 23.0382 19.4532 22.8877 19.0452 22.6369C18.9736 22.5939 18.9092 22.5653 18.8304 22.551C18.5011 22.4865 18.3866 22.336 18.3937 21.899C18.4653 21.684 18.4797 21.3616 18.451 21.0249C18.4295 20.7311 18.7374 20.5377 18.7803 20.2439C18.7946 20.1293 18.8233 20.0218 18.8304 19.9C18.8734 19.4056 18.8877 18.9112 19.3101 18.5315C19.5534 18.3166 19.4962 17.987 19.489 17.6932C19.489 17.5786 19.5033 17.4783 19.5749 17.3923C19.6751 17.2777 19.6966 17.1487 19.7181 16.9911C19.7467 16.7833 19.7038 16.5469 19.9472 16.3606C20.1047 16.2459 20.1118 15.945 20.1619 15.7372C20.2622 15.3432 20.4554 14.9849 20.5199 14.5837C20.5342 14.4906 20.57 14.3831 20.6272 14.3114C20.9351 13.9246 20.7489 13.5878 20.57 13.2152C20.3839 12.8212 19.9901 12.7639 19.6966 12.5417C19.4174 12.334 19.1597 12.0474 19.0094 11.7393C18.8949 11.4957 18.9235 11.1804 18.6586 10.9942C18.63 10.9798 18.6157 10.9225 18.6228 10.8867C18.7159 10.3565 18.5154 9.8048 18.7374 9.28893C18.809 9.1313 18.8447 8.97368 18.7803 8.80173C18.7588 8.73724 18.7803 8.66559 18.7803 8.59395C18.8662 8.00643 18.945 7.41176 19.038 6.82424C19.0595 6.68095 19.1526 6.55198 19.1884 6.41585C19.2528 6.19374 19.3602 5.9788 19.2385 5.74236C19.174 5.61339 19.2671 5.52742 19.3387 5.41994C19.6036 5.02588 19.6751 4.58883 19.6322 4.11595C19.6107 3.84369 19.5892 3.54993 19.6608 3.29917C19.7611 2.96242 19.7181 2.64001 19.6751 2.31759C19.6394 2.031 19.8398 1.80172 20.1333 1.85188C20.4912 1.90203 20.7561 2.12414 20.9852 2.36058C21.2787 2.6615 21.6509 2.89794 21.8943 3.24185C22.1449 3.59292 22.5314 3.6789 22.8894 3.83652C23.1185 3.93683 23.3905 3.88668 23.5838 3.79354C24.0204 3.57859 24.5001 3.60009 24.9224 3.46396C25.4235 3.29917 25.9103 3.46396 26.39 3.32066C26.8696 3.17736 27.3922 3.20602 27.8861 3.27051C28.2083 3.3135 28.5733 3.28484 28.874 3.56426C29.0243 3.70756 29.3823 3.63591 29.5326 3.51411C29.9908 3.12721 30.4919 2.79763 30.9429 2.4179C31.0001 2.36774 31.0216 2.30326 31.0216 2.23161C31.0216 2.10981 31.1004 2.031 31.2006 2.031C31.5585 2.0095 31.8377 1.79456 32.1527 1.66559C32.3817 1.57245 32.5106 1.65126 32.6037 1.80172C32.7039 1.96652 32.7468 2.15996 32.7254 2.36774C32.6967 2.71165 32.6323 3.05556 32.6538 3.39231C32.6753 3.74338 32.5893 4.0443 32.4963 4.37388C32.4319 4.60316 32.2457 4.87542 32.5536 5.09036C32.5965 5.11902 32.5893 5.17634 32.5536 5.22649C32.4175 5.45577 32.5106 5.65638 32.5965 5.89282C32.711 6.20807 32.7254 6.55915 32.7182 6.90306C32.7182 6.96037 32.6896 7.03202 32.7397 7.07501C33.0403 7.31861 33.069 7.68402 33.1835 8.0136C33.3052 8.35034 33.1549 8.67276 33.1835 9.00234C33.1835 9.01667 33.1692 9.04533 33.1549 9.05249C32.6824 9.30326 32.7039 9.84062 32.4605 10.2275C32.4032 10.3207 32.3817 10.421 32.4032 10.5428C32.4247 10.6287 32.439 10.7362 32.4032 10.8079C32.2171 11.1446 32.346 11.4814 32.3316 11.8253C32.3173 12.1548 32.346 12.4414 32.5607 12.7137C32.6251 12.7997 32.6108 12.9645 32.6037 13.0863C32.5965 13.294 32.6108 13.4803 32.6824 13.6881C32.797 14.0034 32.4963 14.204 32.3674 14.4476C32.1598 14.856 31.852 15.2214 31.8878 15.7229C31.8878 15.7946 31.8592 15.8734 31.8305 15.9522C31.5943 16.6185 31.4368 17.3063 31.4082 18.0156C31.3939 18.2521 31.4082 18.4814 31.5513 18.6963C31.6874 18.9256 31.6158 19.2193 31.6945 19.4773C31.7446 19.6349 31.7232 19.7997 31.8448 19.943C31.9379 20.0576 31.852 20.1508 31.7375 20.2296C31.4726 20.4015 31.1791 20.5162 30.9285 20.7168C30.7281 20.8744 30.6422 21.0678 30.7854 21.2828C30.9142 21.4762 31.1218 21.4261 31.3223 21.3616C31.6444 21.2541 31.9952 21.204 32.2887 21.0177C32.3388 20.989 32.4104 20.9819 32.439 21.0607C32.4605 21.118 32.4032 21.1467 32.3674 21.1753C32.0954 21.3974 31.8234 21.6267 31.5513 21.8488C31.4368 21.9419 31.3867 22.0709 31.3724 22.2142C31.3437 22.465 31.5585 22.6226 31.7947 22.5438C32.1956 22.4077 32.618 22.336 32.9258 21.9993C32.9688 21.9491 33.0189 21.9205 33.0761 21.9778C33.1262 22.0279 33.1262 22.0852 33.0761 22.1354C32.8184 22.422 32.7325 22.8017 32.5607 23.1313C32.4963 23.2459 32.4104 23.3677 32.5392 23.4752C32.6609 23.5899 32.8184 23.5684 32.9544 23.5039C33.0117 23.4752 33.069 23.4251 33.1119 23.3677C33.3768 23.0095 33.7848 22.7946 34.064 22.4435C34.1213 22.3718 34.2144 22.2859 34.2859 22.379C34.3719 22.5008 34.6296 22.4793 34.558 22.7086C34.4291 23.1528 34.4076 23.6257 34.1499 24.0269C33.9566 24.3278 34.0712 24.6646 34.0569 24.9798C34.0497 25.2951 34.0712 25.6103 33.7419 25.8109C33.6202 25.8826 33.5486 25.9256 33.4054 25.8539C33.1978 25.7536 33.0547 25.9542 32.8829 26.0259C32.4748 26.1978 32.0954 26.4916 31.6158 26.2552C31.5657 26.2337 31.5156 26.2193 31.4726 26.2552C31.1934 26.4629 30.8283 26.4916 30.5348 26.6707C30.2986 26.814 30.0266 26.8212 29.7474 26.7424L29.7545 26.7209ZM56.8786 48.6523C56.9574 48.8027 57.029 48.9389 56.7283 48.9317C56.5708 48.9317 56.399 49.032 56.2487 49.1395C55.948 49.3688 55.6617 49.641 55.2608 49.6912C55.2322 49.6912 55.1964 49.7055 55.182 49.727C54.7167 50.2787 53.9436 50.1641 53.3995 50.5366C53.0345 50.7874 52.5763 50.8519 52.2255 51.1241C52.1396 51.1886 52.0537 51.2603 51.9607 51.2173C51.5526 51.0453 51.4381 51.4251 51.2162 51.6042C51.166 51.64 51.1589 51.7403 51.073 51.7188C50.6793 51.64 50.3571 51.8908 49.992 51.9624C49.8274 51.9911 49.7773 52.206 49.6556 52.3207C49.584 52.3923 49.5196 52.4711 49.4122 52.464C48.9469 52.4353 48.5746 52.7291 48.1451 52.8437C47.6154 52.9798 47.193 53.3524 46.6489 53.4527C46.5129 53.4742 46.4342 53.596 46.3411 53.682C46.1908 53.8253 46.0333 53.9256 45.8257 53.9327C45.5895 53.9471 45.3962 54.0259 45.1886 54.1548C44.8736 54.3483 44.487 54.4199 44.1506 54.5847C43.8642 54.728 43.5278 54.814 43.3345 55.1149C43.2701 55.2152 43.1698 55.2081 43.0696 55.1937C42.6902 55.1364 42.3895 55.2654 42.1891 55.595C42.1605 55.6451 42.1175 55.6809 42.0674 55.6666C41.6164 55.5018 41.3873 55.9245 41.0437 56.0535C40.5999 56.2255 40.2205 56.5336 39.7194 56.5622C39.5046 56.5765 39.2898 56.6697 39.1109 56.8345C38.8961 57.0351 38.5955 57.0781 38.3234 57.1497C38.1731 57.1855 38.0586 57.2214 38.0371 57.3933C38.0299 57.4721 37.9798 57.5438 37.9082 57.5223C37.4572 57.3933 37.2282 57.8089 36.8917 57.945C36.6984 58.0238 36.5481 58.2029 36.2975 58.1385C36.1472 58.1026 36.0899 58.3033 35.9539 58.3391C35.6533 58.4322 35.3597 58.554 35.0519 58.6328C34.8228 58.6902 34.6439 58.8406 34.4363 58.9338C33.9209 59.1559 33.4198 59.4425 32.933 59.7219C32.4462 60.0013 31.9809 60.3882 31.3437 60.3022C31.2149 60.2879 31.0717 60.4025 30.9357 60.4527C30.7353 60.5243 30.6207 60.4527 30.6207 60.2449C30.6207 59.6861 30.6422 59.12 30.6207 58.5612C30.6064 58.2101 30.6207 57.8662 30.6995 57.5223C30.7209 57.422 30.7138 57.3074 30.7711 57.2142C30.8498 57.0781 30.8426 56.9563 30.7424 56.8273C30.6565 56.727 30.6422 56.5837 30.7138 56.4977C30.9858 56.1753 30.7854 55.8601 30.7138 55.552C30.6923 55.4517 30.6637 55.3585 30.7424 55.2726C30.8212 55.1866 30.814 55.0934 30.7711 54.9931C30.7209 54.8785 30.6995 54.728 30.7496 54.6492C30.9285 54.334 30.7997 54.0044 30.7782 53.7106C30.7567 53.4025 30.7496 53.1733 30.9357 52.9297C30.9787 52.8723 30.9715 52.7864 30.9214 52.729C30.7997 52.5929 30.9071 52.464 30.9071 52.335C30.9071 52.0627 30.7997 51.7833 30.8426 51.4967C30.3988 51.1528 30.7854 50.8519 30.9071 50.551C30.9572 50.4291 31.0001 50.3503 30.9214 50.2285C30.6995 49.8846 30.6422 49.5407 30.7997 49.1252C30.8856 48.8959 30.9357 48.6165 30.8212 48.3012C30.678 47.9071 30.6995 47.4558 30.6565 47.0259C30.6422 46.8969 30.8068 46.8324 30.8068 46.682C30.8068 46.4742 30.7997 46.2807 30.7424 46.073C30.6064 45.5714 30.5778 45.0197 30.6637 44.5325C30.7209 44.2173 30.678 43.9092 30.7281 43.6011C30.7711 43.3432 30.7782 43.0924 30.6851 42.8416C30.6565 42.7628 30.678 42.6625 30.6923 42.5765C30.7854 42.1037 30.8999 41.6308 30.7066 41.1508C30.6494 41.0075 30.678 40.8355 30.7496 40.7495C31.0001 40.4558 30.7997 40.1763 30.7567 39.8969C30.7281 39.6963 30.6995 39.5028 30.7353 39.2879C30.7854 39.0156 30.7567 38.7219 30.7209 38.4425C30.678 38.0771 30.7281 37.7117 30.6708 37.3462C30.635 37.1241 30.8927 36.9522 30.8426 36.6871C30.8283 36.5868 30.857 36.4865 30.7854 36.3862C30.7424 36.3217 30.7138 36.2357 30.7138 36.1641C30.7281 35.7198 30.5849 35.2756 30.6995 34.8242C30.7782 34.5018 30.7711 34.1722 30.6995 33.8498C30.6637 33.685 30.7925 33.5776 30.7997 33.4271C30.8068 33.0044 30.5992 32.6103 30.6708 32.1876C30.7353 31.815 30.5205 31.4281 30.7353 31.0627C30.7711 30.9982 30.7353 30.8908 30.7138 30.8048C30.6494 30.4752 30.7424 30.1456 30.7066 29.8161C30.6708 29.5438 30.5563 29.293 30.5563 28.9634C30.9357 29.207 31.1934 29.465 31.3724 29.8734C31.5084 30.1815 31.8592 30.4036 32.1598 30.6042C32.3316 30.7188 32.482 30.8549 32.5249 31.0556C32.5893 31.3923 32.7898 31.5786 33.0905 31.6932C33.2479 31.7577 33.3338 31.9082 33.3768 32.0515C33.4699 32.3524 33.7347 32.4599 33.9781 32.5458C34.3504 32.682 34.5222 33.0044 34.7155 33.2838C34.8014 33.4056 34.8658 33.5417 34.9732 33.6564C35.2882 33.9788 35.6246 34.2797 35.9038 34.6308C36.0899 34.8672 36.2116 35.161 36.4765 35.3186C36.8201 35.5192 37.042 35.8488 37.3427 36.0996C37.5145 36.2429 37.6648 36.4435 37.8223 36.6226C38.1158 36.9522 38.3879 37.3033 38.7887 37.5254C38.9248 37.6042 39.0465 37.7546 39.1252 37.8908C39.2755 38.1487 39.5476 38.2848 39.7122 38.5069C40.0343 38.944 40.5211 39.2378 40.7932 39.7035C40.9363 39.9471 41.0867 40.1262 41.3086 40.291C41.6665 40.5632 42.0674 40.5561 42.4683 40.5274C42.5971 40.5203 42.7475 40.3268 42.8334 40.1763C42.905 40.0474 42.9909 40.033 43.0982 40.0545C43.3989 40.1047 43.6709 40.0545 43.943 39.9256C44.2222 39.7966 44.5228 39.6676 44.802 39.6103C45.3962 39.4957 45.9116 39.1374 46.5272 39.0873C46.7492 39.0658 47.0355 39.0013 47.2431 38.7935C47.372 38.6646 47.5867 38.6646 47.78 38.6861C48.0735 38.7147 48.3384 38.6932 48.6032 38.5284C48.8037 38.3995 49.0757 38.5284 49.2905 38.4138C49.3406 38.3851 49.4265 38.3995 49.4551 38.3636C49.6341 38.1415 49.8489 38.0556 50.128 38.0986C50.1495 38.0986 50.1782 38.0986 50.1853 38.0842C50.443 37.6758 50.8511 37.9338 51.1804 37.8478C51.2448 37.8335 51.3235 37.8478 51.3736 37.7976C51.8318 37.3319 52.5119 37.4394 53.0488 37.16C53.0989 37.1313 53.1919 37.1456 53.2492 37.1671C53.4711 37.2531 53.7145 37.1815 53.8291 37.0525C54.1082 36.7516 54.459 36.7516 54.8026 36.6943C55.361 36.6011 55.9051 36.4435 56.4277 36.2429C56.9288 36.0494 56.9073 36.0279 56.9932 36.5581C57.0505 36.9235 56.8715 37.2531 56.893 37.6185C56.9073 37.9266 56.986 38.2418 56.9359 38.5571C56.9216 38.6502 56.9574 38.7505 56.8643 38.8294C56.7856 38.8938 56.7641 38.9798 56.7856 39.073C56.9073 39.596 56.7856 40.1405 56.986 40.6492C57.0218 40.7495 57.0433 40.8498 57.0003 40.9358C56.8643 41.2296 56.986 41.5878 56.7498 41.8601C56.6925 41.9245 56.7498 42.0105 56.7641 42.0893C56.8429 42.4906 56.9359 42.8918 56.7856 43.293C56.7713 43.336 56.8071 43.4005 56.8285 43.4578C56.9717 43.8519 57.0934 44.2388 56.8285 44.6328C56.7426 44.7618 56.8715 44.8979 56.8715 45.0341C56.8715 45.292 56.8786 45.5571 56.9288 45.815C57.0218 46.3237 57.0934 46.8324 57.0433 47.3483C57.0433 47.4128 57.0648 47.4844 57.0719 47.5489C57.1006 47.7853 57.1077 48.0146 56.9359 48.2152C56.8357 48.3299 56.8071 48.4732 56.8858 48.6308L56.8786 48.6523ZM65.4475 31.6502C65.3402 31.7935 65.1612 31.944 64.9608 31.8437C64.7746 31.7505 64.6673 31.8222 64.5456 31.9368C64.338 32.1303 64.116 32.2879 63.8082 32.2234C63.7223 32.2019 63.6507 32.2449 63.5863 32.2951C63.4431 32.4025 63.3 32.5172 63.1067 32.4025C63.0852 32.3882 63.0494 32.4025 63.0208 32.4097C62.4051 32.6963 61.7394 32.8611 61.1237 33.1548C60.7801 33.3196 60.3577 33.4271 59.9426 33.4486C59.6204 33.4629 59.3126 33.5489 59.0406 33.771C58.8043 33.9645 58.4679 34.0433 58.1744 34.0146C57.6947 33.9645 57.3225 34.2726 56.9073 34.3155C56.4133 34.3657 55.9767 34.595 55.4899 34.6451C55.4183 34.6451 55.3395 34.6451 55.2894 34.6881C54.9888 34.8959 54.6165 34.8744 54.2872 34.989C54.2586 34.9962 54.2085 34.989 54.2013 35.0105C53.9937 35.4619 53.5069 35.2685 53.1776 35.4476C52.7052 35.7055 52.1539 35.6482 51.6457 35.77C51.5669 35.7915 51.4953 35.813 51.4381 35.8703C51.3951 35.9133 51.3235 35.9849 51.3021 35.9706C50.9584 35.7772 50.7938 36.1282 50.5576 36.2214C50.4287 36.2715 50.2998 36.2715 50.1853 36.2787C49.8059 36.3002 49.5697 36.6369 49.2117 36.6799C48.8681 36.7157 48.5675 37.0238 48.1809 36.859C48.1093 36.8304 47.9804 36.9092 47.8874 36.9665C47.5151 37.1815 47.0641 37.1671 46.6919 37.3749C46.5774 37.4394 46.4843 37.468 46.3697 37.3749C46.3053 37.3248 46.2123 37.3606 46.1407 37.3964C45.8185 37.5684 45.4606 37.64 45.1599 37.8621C45.0168 37.9696 44.8306 38.0914 44.6087 38.0126C44.5658 37.9982 44.4942 38.0054 44.4655 38.0341C44.0432 38.4066 43.5134 38.2992 43.0267 38.378C42.9694 38.3851 42.8763 38.378 42.8549 38.4138C42.6902 38.6861 42.4611 38.6574 42.1748 38.6502C41.9385 38.6431 41.8526 38.5643 41.7524 38.3851C41.6021 38.1057 41.3659 37.8908 41.1654 37.6472C40.8433 37.2459 40.4352 36.9235 40.1417 36.5008C40.0343 36.3432 39.8983 36.2285 39.7337 36.1282C39.569 36.0279 39.5476 35.7843 39.3328 35.6912C39.2326 35.6482 39.1825 35.4906 39.025 35.5121C39.0107 35.5121 38.9749 35.5049 38.9749 35.4906C38.8818 35.075 38.4022 35.0607 38.2089 34.7311C37.987 34.3442 37.5288 34.1436 37.2997 33.7567C37.0921 33.3913 36.7772 33.162 36.4407 32.9399C36.1973 32.7823 36.0327 32.5243 35.8823 32.3022C35.6676 31.9798 35.4385 31.6359 35.1665 31.4281C34.8014 31.1415 34.5938 30.6758 34.1213 30.511C33.928 30.4466 33.7705 30.2889 33.7061 30.074C33.6488 29.8734 33.4842 29.7659 33.3267 29.6728C33.0976 29.5438 32.9473 29.3647 32.8399 29.1354C32.6824 28.8058 32.3817 28.641 32.0954 28.4547C31.895 28.3186 31.7017 28.1682 31.5728 27.946C31.4296 27.6881 31.4941 27.5735 31.7661 27.5663C32.167 27.6595 32.4963 27.4803 32.8327 27.3514C32.9043 27.3227 32.9902 27.2797 33.0618 27.294C33.3768 27.3442 33.6775 27.2654 33.9566 27.1436C34.3289 26.986 34.7584 27.0433 35.1092 26.8785C35.4671 26.7137 35.8609 26.6994 36.2188 26.5274C36.362 26.4558 36.5767 26.4558 36.7557 26.4558C37.3642 26.4486 37.9225 26.1405 38.5382 26.1978C38.7529 26.2193 38.9605 26.1477 39.1252 26.0259C39.297 25.8897 39.4831 25.8611 39.6836 25.8897C39.9126 25.9184 40.1202 25.8683 40.3064 25.7536C40.5569 25.596 40.8003 25.5172 41.1153 25.6175C41.3587 25.6891 41.6379 25.553 41.8884 25.4957C42.232 25.4169 42.59 25.4527 42.9336 25.2879C43.1698 25.1733 43.4562 25.1446 43.6924 24.9942C43.9788 24.8222 44.3152 24.9225 44.623 24.9153C44.9953 24.9153 45.3103 24.8007 45.6252 24.6431C45.9617 24.4783 46.3268 24.5141 46.6847 24.4783C47.0641 24.4425 47.4292 24.3565 47.7585 24.163C47.8373 24.1129 47.9089 24.0986 47.9948 24.0842C48.5961 23.9696 49.2117 23.9624 49.7987 23.7761C50.5003 23.554 51.2162 23.4251 51.9463 23.3821C52.1325 23.3677 52.3401 23.2889 52.4904 23.1743C52.8197 22.9307 53.1919 22.8949 53.5642 22.902C53.736 22.902 53.8863 22.8877 54.0367 22.8232C54.1727 22.7659 54.2944 22.7516 54.4519 22.8447C54.6881 22.988 54.8814 22.7516 55.0604 22.6584C55.2751 22.551 55.4684 22.4721 55.7046 22.422C55.991 22.3647 56.2845 22.3647 56.5708 22.2429C56.8214 22.1426 57.1435 22.3288 57.2724 22.5868C57.3082 22.6513 57.344 22.7086 57.4084 22.7372C57.5659 22.8089 57.6231 22.9092 57.6446 23.0955C57.6733 23.3606 57.9238 23.5612 58.1171 23.6687C58.4249 23.8406 58.5538 24.1344 58.7757 24.3636C58.8258 24.4138 58.8401 24.4998 58.9189 24.5069C59.241 24.5284 59.2768 24.815 59.3555 25.0156C59.4271 25.1876 59.4987 25.3022 59.6705 25.3667C59.8924 25.4527 60.0929 25.553 60.143 25.8324C60.1716 25.9972 60.279 26.1262 60.4723 26.1763C60.7443 26.2408 60.8231 26.5346 61.002 26.7137C61.2741 26.9716 61.589 27.2224 61.7107 27.6021C61.7895 27.8314 61.9255 27.9174 62.1474 27.989C62.3407 28.0464 62.5125 28.2255 62.5626 28.4619C62.6056 28.6482 62.6986 28.7772 62.8776 28.8703C63.0494 28.9634 63.1854 29.1067 63.3 29.2715C63.572 29.6584 63.98 29.9307 64.2163 30.3606C64.295 30.5039 64.5169 30.5755 64.6887 30.6543C64.9966 30.7976 64.9178 31.206 65.2042 31.3636C65.2256 31.378 65.2399 31.4066 65.2543 31.4353C65.3044 31.5284 65.5549 31.4998 65.4332 31.6646L65.4475 31.6502Z" fill="black"/>
<path d="M28.96 7.21825C28.8598 7.19675 28.7596 7.22541 28.6737 7.2684C28.0222 7.56932 27.4281 7.96339 26.9126 8.46492C26.7909 8.57956 26.6692 8.70136 26.5762 8.83749C26.4402 9.04527 26.476 9.26021 26.6263 9.43933C26.7695 9.60412 26.9771 9.62562 27.1703 9.52531C27.4352 9.38918 27.7001 9.23155 27.9363 9.0596C28.237 8.83749 28.5305 8.60822 28.824 8.37894C29.003 8.23565 29.1604 8.07086 29.275 7.87741C29.4611 7.56932 29.2893 7.23258 28.9528 7.22541L28.96 7.21825Z" fill="black"/>
<path d="M24.7006 8.64405C23.9848 8.21416 23.1615 8.14251 22.3812 7.9419C22.1736 7.93473 21.9732 7.92757 21.8157 8.07803C21.5508 8.3288 21.7584 8.75868 22.2023 8.87332C22.7821 9.03095 23.362 9.16708 23.8989 9.45367C24.0707 9.54681 24.2711 9.60413 24.4716 9.55398C24.7221 9.49666 24.9583 9.38919 25.0013 9.10259C25.0299 8.88765 24.8653 8.74435 24.6935 8.64405H24.7006Z" fill="black"/>
<path d="M37.5502 18.0586C38.3019 18.0515 38.6813 17.7792 38.6884 17.249C38.6884 16.9409 38.2016 16.3821 37.9153 16.3821C37.5144 16.3821 36.9847 16.683 36.9775 16.9123C36.9632 17.3995 37.2925 18.0586 37.543 18.0586H37.5502Z" fill="black"/>
<path d="M73.7268 39.3492C73.9573 39.246 74.14 39.1984 74.2831 39.1984C74.5214 39.1984 74.7757 39.3175 75.03 39.5636C75.2604 39.778 75.4114 40.0957 75.4988 40.5086C75.5783 40.9215 75.6418 41.7394 75.6816 42.9543C75.7292 44.4948 75.8484 45.8844 76.0232 47.1311C76.1265 47.8458 76.1742 48.4413 76.1742 48.9257C76.1742 49.5133 76.0391 49.9183 75.7769 50.1486C75.61 50.2915 75.4432 50.3551 75.2604 50.3551C74.9426 50.3551 74.6724 50.1883 74.442 49.8627C74.291 49.6325 74.1639 49.2116 74.0606 48.6081C73.9573 47.9967 73.8301 46.9088 73.6792 45.3286C73.552 44.2328 73.4487 43.6928 73.3772 43.6928C73.3295 43.6928 73.0911 44.1375 72.67 45.0268C72.3681 45.7256 72.0979 46.1941 71.8754 46.4403C71.6529 46.6785 71.3748 46.8056 71.049 46.8056C70.7709 46.8056 70.5643 46.75 70.4292 46.6309C70.2941 46.5197 70.0001 46.1465 69.5393 45.5271C69.3962 45.3365 69.2691 45.1618 69.142 44.9951C69.0148 44.8283 68.9115 44.7092 68.8241 44.6219C68.7447 44.5425 68.697 44.5028 68.6811 44.5186C68.6414 44.5583 68.5778 45.1857 68.4904 46.4085C68.403 47.6393 68.3235 48.4413 68.252 48.7987C68.1805 49.156 68.0454 49.4578 67.8388 49.688C67.6084 49.966 67.3382 50.1089 67.0204 50.1089C66.7502 50.1089 66.5198 49.9977 66.3132 49.7833C66.1702 49.6325 66.0907 49.4578 66.0589 49.2672C66.0271 49.0766 66.0112 48.6716 66.0112 48.0443C66.0112 47.1391 66.0351 46.6388 66.0907 46.5356C66.1543 46.4244 66.2178 45.3524 66.2814 43.3355C66.3291 41.6679 66.4085 40.6356 66.5118 40.2227C66.6151 39.8098 66.8456 39.5319 67.219 39.3969C67.3303 39.3572 67.4415 39.3413 67.5448 39.3413C67.7594 39.3413 67.9739 39.4525 68.1726 39.6669C68.3791 39.8813 68.6016 40.2465 68.8559 40.7547C69.1102 41.2629 69.4757 41.8744 69.9604 42.597C70.4451 43.3117 70.7312 43.6769 70.8186 43.6769C70.8583 43.6769 71.1523 43.1767 71.7165 42.1682C72.225 41.2312 72.6223 40.5642 72.9004 40.1751C73.1786 39.786 73.4567 39.5239 73.7427 39.381L73.7268 39.3492Z" fill="black"/>
<path d="M79.0665 41.0326C79.2572 40.9294 79.4161 40.8817 79.5433 40.8817C79.6863 40.8817 79.8293 40.9532 79.9803 41.0882C80.1869 41.2549 80.2823 41.5249 80.2823 41.9061C80.2823 42.1602 80.2584 42.4619 80.2028 42.8034C80.179 43.0336 80.1631 43.2163 80.1631 43.3592C80.1631 44.2962 80.314 45.0585 80.6239 45.6461C80.8305 46.067 81.1166 46.2735 81.498 46.2735C81.8317 46.2735 82.0701 46.0908 82.2211 45.7176C82.3482 45.4238 82.4356 44.7171 82.4913 43.6054C82.531 42.7001 82.6025 42.0966 82.7137 41.779C82.825 41.4614 83.0316 41.239 83.3494 41.112C83.4368 41.0723 83.5322 41.0564 83.6355 41.0564C84.0566 41.0564 84.3665 41.2629 84.5731 41.6837C84.6764 41.914 84.7559 43.0972 84.8194 45.2491C84.8433 46.6943 84.8592 47.4646 84.8592 47.5519C84.8592 48.203 84.7797 48.6001 84.6287 48.751C84.4539 48.9257 84.1997 49.0209 83.8818 49.0209C83.564 49.0209 83.3018 48.8701 83.0634 48.5604C82.8488 48.2904 82.674 48.1633 82.5469 48.1633C82.4674 48.1633 82.3721 48.1792 82.2608 48.2189C81.9907 48.2983 81.7364 48.3301 81.4821 48.3301C80.8067 48.3301 80.2028 48.0998 79.6625 47.6313C79.1221 47.1708 78.7248 46.5355 78.4706 45.7335C78.256 45.0188 78.1448 44.2565 78.1448 43.4307C78.1448 42.6048 78.2481 42.049 78.4467 41.6758C78.6533 41.3343 78.852 41.1199 79.0586 41.0246L79.0665 41.0326Z" fill="black"/>
<path d="M89.6506 41.1993C89.9525 41.0961 90.2386 41.0485 90.5088 41.0485C91.0014 41.0485 91.4543 41.1914 91.8596 41.4852C92.2648 41.779 92.5747 42.184 92.7972 42.7081C93.0118 43.256 93.123 44.0421 93.123 45.0744C93.123 46.6228 92.9482 47.5916 92.5906 47.9728C92.3999 48.1872 92.1933 48.2983 91.9629 48.2983C91.6689 48.2983 91.3987 48.1236 91.1444 47.7663C91.0014 47.5519 90.914 47.3216 90.8743 47.0675C90.8345 46.8214 90.8187 46.2734 90.8187 45.4159C90.8187 44.1612 90.7471 43.4704 90.6121 43.3592C90.5326 43.3116 90.4849 43.2798 90.4611 43.2798C90.3578 43.2798 90.2148 43.391 90.0241 43.6213C89.436 44.2406 89.15 45.1617 89.15 46.3846V47.0358C89.15 47.544 89.0705 47.8934 88.9037 48.0839C88.713 48.338 88.4666 48.4651 88.1567 48.4651C87.8468 48.4651 87.5687 48.338 87.3383 48.0839C87.1237 47.8536 86.9807 47.5122 86.9172 47.0675C86.8536 46.6149 86.8139 45.7017 86.8059 44.3359V43.4227C86.8059 42.4857 86.8854 41.9061 87.0363 41.6917C87.1873 41.4534 87.4019 41.3264 87.6641 41.3264C87.9025 41.3264 88.117 41.4137 88.2918 41.5964C88.4587 41.7393 88.562 41.8028 88.5938 41.8028C88.6414 41.8028 88.7527 41.7393 88.9196 41.6123C89.0944 41.4455 89.3486 41.3105 89.6665 41.2152L89.6506 41.1993Z" fill="black"/>
<path d="M95.5625 40.4371C95.7056 40.2941 95.8645 40.2306 96.0552 40.2306C96.373 40.2306 96.6432 40.3735 96.8736 40.6673C97.0166 40.8579 97.1041 41.1438 97.1438 41.517C97.1835 41.8902 97.2074 42.8431 97.2232 44.3677C97.2391 44.9633 97.2391 45.6462 97.2391 46.4085C97.2391 47.004 97.2232 47.3931 97.1915 47.5837C97.1597 47.7663 97.0882 47.9331 96.969 48.0681C96.7544 48.3381 96.4763 48.4651 96.1267 48.4651C95.7771 48.4651 95.5148 48.3381 95.3241 48.084C95.1811 47.9093 95.1017 47.6472 95.0778 47.3058C95.054 46.9643 95.0381 46.0511 95.0381 44.5821C95.0381 43.0178 95.0699 42.0014 95.1255 41.5329C95.1811 41.0644 95.3241 40.6991 95.5546 40.445L95.5625 40.4371ZM95.4672 37.3164C95.634 37.1496 95.8327 37.0702 96.0552 37.0702C96.3095 37.0702 96.5399 37.1575 96.7544 37.3402C96.961 37.5149 97.0723 37.7293 97.0723 37.9675C97.0723 38.0787 97.0564 38.1739 97.0325 38.2375C96.9531 38.4757 96.81 38.6822 96.6035 38.8489C96.3969 39.0157 96.1823 39.0951 95.9678 39.0951C95.9042 39.0951 95.8565 39.0951 95.8168 39.0792C95.348 38.968 95.1096 38.6583 95.1096 38.166C95.1096 37.8484 95.2288 37.5705 95.4751 37.3243L95.4672 37.3164Z" fill="black"/>
<path d="M106.87 39.3492C107.1 39.246 107.283 39.1984 107.426 39.1984C107.664 39.1984 107.919 39.3175 108.173 39.5636C108.403 39.778 108.554 40.0957 108.642 40.5086C108.721 40.9215 108.785 41.7394 108.824 42.9543C108.872 44.4948 108.991 45.8844 109.166 47.1311C109.269 47.8458 109.317 48.4413 109.317 48.9257C109.317 49.5133 109.182 49.9183 108.92 50.1486C108.753 50.2915 108.586 50.3551 108.403 50.3551C108.085 50.3551 107.815 50.1883 107.585 49.8627C107.434 49.6325 107.307 49.2116 107.203 48.6081C107.1 47.9967 106.973 46.9088 106.822 45.3286C106.695 44.2328 106.592 43.6928 106.52 43.6928C106.472 43.6928 106.234 44.1375 105.813 45.0268C105.511 45.7256 105.241 46.1941 105.018 46.4403C104.796 46.6785 104.518 46.8056 104.192 46.8056C103.914 46.8056 103.707 46.75 103.572 46.6309C103.437 46.5197 103.143 46.1465 102.682 45.5271C102.539 45.3365 102.412 45.1618 102.285 44.9951C102.158 44.8283 102.054 44.7092 101.967 44.6219C101.887 44.5425 101.84 44.5028 101.824 44.5186C101.784 44.5583 101.721 45.1857 101.633 46.4085C101.546 47.6393 101.466 48.4413 101.395 48.7987C101.323 49.156 101.188 49.4578 100.982 49.688C100.751 49.966 100.481 50.1089 100.163 50.1089C99.893 50.1089 99.6626 49.9977 99.456 49.7833C99.313 49.6325 99.2335 49.4578 99.2017 49.2672C99.1699 49.0766 99.1541 48.6716 99.1541 48.0443C99.1541 47.1391 99.1779 46.6388 99.2335 46.5356C99.2971 46.4244 99.3606 45.3524 99.4242 43.3355C99.4719 41.6679 99.5514 40.6356 99.6547 40.2227C99.7579 39.8098 99.9884 39.5319 100.362 39.3969C100.473 39.3572 100.584 39.3413 100.688 39.3413C100.902 39.3413 101.117 39.4525 101.315 39.6669C101.522 39.8813 101.744 40.2465 101.999 40.7547C102.253 41.2629 102.619 41.8744 103.103 42.597C103.588 43.3117 103.874 43.6769 103.961 43.6769C104.001 43.6769 104.295 43.1767 104.859 42.1682C105.368 41.2312 105.765 40.5642 106.043 40.1751C106.321 39.786 106.599 39.5239 106.886 39.381L106.87 39.3492Z" fill="black"/>
<path d="M112.209 41.0326C112.4 40.9294 112.559 40.8817 112.686 40.8817C112.829 40.8817 112.972 40.9532 113.123 41.0882C113.33 41.2549 113.425 41.5249 113.425 41.9061C113.425 42.1602 113.401 42.4619 113.346 42.8034C113.322 43.0336 113.306 43.2163 113.306 43.3592C113.306 44.2962 113.457 45.0585 113.767 45.6461C113.973 46.067 114.259 46.2735 114.641 46.2735C114.975 46.2735 115.213 46.0908 115.364 45.7176C115.491 45.4238 115.578 44.7171 115.634 43.6054C115.674 42.7001 115.745 42.0966 115.857 41.779C115.968 41.4614 116.174 41.239 116.492 41.112C116.58 41.0723 116.675 41.0564 116.778 41.0564C117.199 41.0564 117.509 41.2629 117.716 41.6837C117.819 41.914 117.899 43.0972 117.962 45.2491C117.986 46.6943 118.002 47.4646 118.002 47.5519C118.002 48.203 117.923 48.6001 117.772 48.751C117.597 48.9257 117.342 49.0209 117.025 49.0209C116.707 49.0209 116.445 48.8701 116.206 48.5604C115.992 48.2904 115.817 48.1633 115.69 48.1633C115.61 48.1633 115.515 48.1792 115.404 48.2189C115.133 48.2983 114.879 48.3301 114.625 48.3301C113.95 48.3301 113.346 48.0998 112.805 47.6313C112.265 47.1708 111.868 46.5355 111.613 45.7335C111.399 45.0188 111.288 44.2565 111.288 43.4307C111.288 42.6048 111.391 42.049 111.59 41.6758C111.796 41.3343 111.995 41.1199 112.201 41.0246L112.209 41.0326Z" fill="black"/>
<path d="M122.793 41.1993C123.095 41.0961 123.381 41.0485 123.652 41.0485C124.144 41.0485 124.597 41.1914 125.002 41.4852C125.408 41.779 125.718 42.184 125.94 42.7081C126.155 43.256 126.266 44.0421 126.266 45.0744C126.266 46.6228 126.091 47.5916 125.733 47.9728C125.543 48.1872 125.336 48.2983 125.106 48.2983C124.812 48.2983 124.542 48.1236 124.287 47.7663C124.144 47.5519 124.057 47.3216 124.017 47.0675C123.977 46.8214 123.961 46.2734 123.961 45.4159C123.961 44.1612 123.89 43.4704 123.755 43.3592C123.675 43.3116 123.628 43.2798 123.604 43.2798C123.501 43.2798 123.358 43.391 123.167 43.6213C122.579 44.2406 122.293 45.1617 122.293 46.3846V47.0358C122.293 47.544 122.213 47.8934 122.046 48.0839C121.856 48.338 121.609 48.4651 121.3 48.4651C120.99 48.4651 120.712 48.338 120.481 48.0839C120.267 47.8536 120.124 47.5122 120.06 47.0675C119.996 46.6149 119.957 45.7017 119.949 44.3359V43.4227C119.949 42.4857 120.028 41.9061 120.179 41.6917C120.33 41.4534 120.545 41.3264 120.807 41.3264C121.045 41.3264 121.26 41.4137 121.435 41.5964C121.602 41.7393 121.705 41.8028 121.737 41.8028C121.784 41.8028 121.896 41.7393 122.062 41.6123C122.237 41.4455 122.491 41.3105 122.809 41.2152L122.793 41.1993Z" fill="black"/>
<path d="M128.705 40.4371C128.848 40.2941 129.007 40.2306 129.198 40.2306C129.516 40.2306 129.786 40.3735 130.016 40.6673C130.159 40.8579 130.247 41.1438 130.287 41.517C130.326 41.8902 130.35 42.8431 130.366 44.3677C130.382 44.9633 130.382 45.6462 130.382 46.4085C130.382 47.004 130.366 47.3931 130.334 47.5837C130.302 47.7663 130.231 47.9331 130.112 48.0681C129.897 48.3381 129.619 48.4651 129.27 48.4651C128.92 48.4651 128.658 48.3381 128.467 48.084C128.324 47.9093 128.244 47.6472 128.221 47.3058C128.197 46.9643 128.181 46.0511 128.181 44.5821C128.181 43.0178 128.213 42.0014 128.268 41.5329C128.324 41.0644 128.467 40.6991 128.697 40.445L128.705 40.4371ZM128.61 37.3164C128.777 37.1496 128.976 37.0702 129.198 37.0702C129.452 37.0702 129.683 37.1575 129.897 37.3402C130.104 37.5149 130.215 37.7293 130.215 37.9675C130.215 38.0787 130.199 38.1739 130.175 38.2375C130.096 38.4757 129.953 38.6822 129.746 38.8489C129.54 39.0157 129.325 39.0951 129.111 39.0951C129.047 39.0951 128.999 39.0951 128.96 39.0792C128.491 38.968 128.252 38.6583 128.252 38.166C128.252 37.8484 128.372 37.5705 128.618 37.3243L128.61 37.3164Z" fill="black"/>
<path d="M135.173 41.1993C135.475 41.0961 135.761 41.0485 136.031 41.0485C136.524 41.0485 136.977 41.1914 137.382 41.4852C137.788 41.779 138.097 42.184 138.32 42.7081C138.534 43.256 138.646 44.0421 138.646 45.0744C138.646 46.6228 138.471 47.5916 138.113 47.9728C137.923 48.1872 137.716 48.2983 137.486 48.2983C137.192 48.2983 136.921 48.1236 136.667 47.7663C136.524 47.5519 136.437 47.3216 136.397 47.0675C136.357 46.8214 136.341 46.2734 136.341 45.4159C136.341 44.1612 136.27 43.4704 136.135 43.3592C136.055 43.3116 136.008 43.2798 135.984 43.2798C135.88 43.2798 135.737 43.391 135.547 43.6213C134.959 44.2406 134.673 45.1617 134.673 46.3846V47.0358C134.673 47.544 134.593 47.8934 134.426 48.0839C134.236 48.338 133.989 48.4651 133.679 48.4651C133.37 48.4651 133.091 48.338 132.861 48.0839C132.646 47.8536 132.503 47.5122 132.44 47.0675C132.376 46.6149 132.337 45.7017 132.329 44.3359V43.4227C132.329 42.4857 132.408 41.9061 132.559 41.6917C132.71 41.4534 132.925 41.3264 133.187 41.3264C133.425 41.3264 133.64 41.4137 133.815 41.5964C133.981 41.7393 134.085 41.8028 134.116 41.8028C134.164 41.8028 134.275 41.7393 134.442 41.6123C134.617 41.4455 134.871 41.3105 135.189 41.2152L135.173 41.1993Z" fill="black"/>
<path d="M145.297 41.0485C145.336 40.8976 145.463 40.7468 145.686 40.6118C145.908 40.4688 146.123 40.3815 146.322 40.3418C146.489 40.3418 146.671 40.4212 146.886 40.588C147.092 40.7547 147.235 40.9215 147.299 41.1041C147.339 41.1915 147.355 41.4932 147.355 42.0014C147.355 42.8669 147.307 43.9707 147.22 45.3047C147.132 46.6467 147.037 47.5678 146.934 48.076C146.695 49.3227 146.226 50.2915 145.535 50.9903C144.844 51.6891 144.009 52.0385 143.024 52.0385C142.452 52.0385 141.951 51.8955 141.53 51.6097C141.109 51.3238 140.831 50.9426 140.704 50.4741C140.664 50.3233 140.648 50.1724 140.648 50.0374C140.648 49.7357 140.736 49.4816 140.918 49.283C141.101 49.0845 141.316 48.9892 141.586 48.9892C141.888 48.9892 142.174 49.1242 142.428 49.3863C142.682 49.6404 142.953 49.7674 143.231 49.7674C143.739 49.7674 144.168 49.4021 144.51 48.6637C144.725 48.1952 144.836 47.8934 144.836 47.7664C144.836 47.679 144.788 47.6314 144.701 47.6314C144.685 47.6314 144.629 47.6472 144.526 47.6711C144.248 47.7584 143.89 47.814 143.461 47.8458C143.358 47.8616 143.223 47.8616 143.064 47.8616C142.77 47.8616 142.468 47.7425 142.15 47.4964C141.347 46.9246 140.95 46.0512 140.95 44.868C140.95 43.6848 141.347 42.7478 142.15 42.0093C142.738 41.4614 143.366 41.1915 144.041 41.1915C144.144 41.1915 144.295 41.2073 144.502 41.2312C144.78 41.255 144.939 41.2709 144.979 41.2709C145.154 41.2709 145.273 41.1915 145.32 41.0406L145.297 41.0485ZM144.613 43.4149C144.462 43.2878 144.28 43.2243 144.057 43.2243C143.85 43.2243 143.636 43.3672 143.398 43.6531C143.159 43.9389 143.016 44.2248 142.953 44.5186C142.937 44.5663 142.937 44.6457 142.937 44.7489C142.937 45.003 142.992 45.2412 143.096 45.4556C143.199 45.67 143.334 45.7891 143.485 45.8209H143.501C143.644 45.8209 143.842 45.6382 144.105 45.2809C144.367 44.9156 144.566 44.5424 144.709 44.1454C144.788 43.931 144.82 43.7801 144.82 43.7087C144.82 43.6213 144.748 43.526 144.613 43.4228V43.4149Z" fill="black"/>
<path d="M155.96 38.6663C156.429 38.4281 156.898 38.301 157.375 38.301C157.947 38.301 158.471 38.4678 158.956 38.7933C159.44 39.1269 159.798 39.5795 160.044 40.1671C160.156 40.4688 160.219 40.7865 160.219 41.1041C160.219 41.525 160.132 41.8188 159.949 42.0014C159.766 42.184 159.591 42.2714 159.417 42.2714C159.059 42.2714 158.702 41.9299 158.352 41.2391C158.034 40.6515 157.7 40.3656 157.359 40.3656C157.184 40.3656 157.001 40.4371 156.826 40.5721C156.532 40.7865 156.389 41.1041 156.389 41.525C156.389 41.652 156.405 41.7949 156.445 41.9458C156.485 42.1126 156.969 42.6922 157.891 43.7007C159.25 45.1459 160.005 46.3688 160.164 47.3614C160.187 47.5361 160.203 47.679 160.203 47.7822C160.203 48.6239 159.885 49.3386 159.25 49.9262C158.614 50.5138 157.835 50.8156 156.922 50.8315H156.691C156.222 50.8315 155.777 50.6965 155.356 50.4344C154.506 49.9103 154.077 49.2274 154.077 48.3778C154.077 47.8855 154.252 47.4805 154.593 47.1787C154.848 46.9405 155.094 46.8135 155.34 46.8135C155.722 46.8135 156.024 47.1549 156.254 47.8458C156.357 48.1793 156.437 48.3698 156.5 48.4254C156.564 48.481 156.731 48.5128 156.993 48.5128C157.335 48.5128 157.605 48.4016 157.796 48.1713C157.923 48.0046 157.986 47.8378 157.986 47.679C157.986 47.2581 157.518 46.5435 156.572 45.5271C155.793 44.6774 155.269 44.058 154.991 43.6769C154.713 43.2957 154.506 42.8908 154.379 42.454C154.276 42.1126 154.228 41.787 154.228 41.4853C154.228 40.8897 154.379 40.3418 154.689 39.8495C154.991 39.3571 155.42 38.968 155.968 38.6901L155.96 38.6663Z" fill="black"/>
<path d="M165.019 37.9834C165.17 37.8087 165.392 37.7134 165.686 37.7134C165.98 37.7134 166.218 37.8007 166.369 37.9834C166.512 38.1263 166.576 38.4757 166.576 39.0315V39.3968L166.56 40.5403L167.132 40.6356C167.474 40.6832 167.736 40.8103 167.927 41.0088C168.11 41.2073 168.205 41.4217 168.205 41.6679C168.205 41.9378 168.102 42.1602 167.903 42.3508C167.696 42.5413 167.41 42.6366 167.045 42.6366C166.648 42.6366 166.425 42.7081 166.377 42.8431C166.33 42.9542 166.298 43.3433 166.298 44.0024C166.298 44.995 166.338 45.5667 166.409 45.7176C166.489 45.8447 166.719 45.9717 167.116 46.0988C167.498 46.2258 167.752 46.3449 167.879 46.464C168.006 46.5752 168.07 46.734 168.07 46.9246C168.07 47.3693 167.887 47.6869 167.514 47.8775C167.236 48.0204 166.95 48.0839 166.656 48.0839C165.972 48.0839 165.368 47.7901 164.844 47.2105C164.574 46.9087 164.391 46.5673 164.288 46.202C164.184 45.8367 164.137 45.3206 164.137 44.6615V44.2248L164.176 42.851L163.509 42.7001C163.112 42.5969 162.81 42.454 162.587 42.2634C162.365 42.0728 162.253 41.8664 162.253 41.6361C162.253 41.5329 162.285 41.4217 162.349 41.2946C162.428 41.1676 162.579 41.0564 162.818 40.9611C163.056 40.8658 163.286 40.8182 163.517 40.8182C163.62 40.8182 163.692 40.8182 163.747 40.8341C163.787 40.85 163.835 40.85 163.898 40.85C164.319 40.85 164.526 40.5244 164.526 39.8812C164.55 38.9521 164.717 38.3248 165.019 37.9913V37.9834Z" fill="black"/>
<path d="M171.098 41.0326C171.288 40.9294 171.447 40.8817 171.574 40.8817C171.717 40.8817 171.86 40.9532 172.011 41.0882C172.218 41.2549 172.313 41.5249 172.313 41.9061C172.313 42.1602 172.289 42.4619 172.234 42.8034C172.21 43.0336 172.194 43.2163 172.194 43.3592C172.194 44.2962 172.345 45.0585 172.655 45.6461C172.862 46.067 173.148 46.2735 173.529 46.2735C173.863 46.2735 174.101 46.0908 174.252 45.7176C174.379 45.4238 174.467 44.7171 174.522 43.6054C174.562 42.7001 174.634 42.0966 174.745 41.779C174.856 41.4614 175.063 41.239 175.38 41.112C175.468 41.0723 175.563 41.0564 175.666 41.0564C176.088 41.0564 176.398 41.2629 176.604 41.6837C176.707 41.914 176.787 43.0972 176.85 45.2491C176.874 46.6943 176.89 47.4646 176.89 47.5519C176.89 48.203 176.811 48.6001 176.66 48.751C176.485 48.9257 176.231 49.0209 175.913 49.0209C175.595 49.0209 175.333 48.8701 175.094 48.5604C174.88 48.2904 174.705 48.1633 174.578 48.1633C174.498 48.1633 174.403 48.1792 174.292 48.2189C174.022 48.2983 173.767 48.3301 173.513 48.3301C172.838 48.3301 172.234 48.0998 171.693 47.6313C171.153 47.1708 170.756 46.5355 170.502 45.7335C170.287 45.0188 170.176 44.2565 170.176 43.4307C170.176 42.6048 170.279 42.049 170.478 41.6758C170.684 41.3343 170.883 41.1199 171.09 41.0246L171.098 41.0326Z" fill="black"/>
<path d="M183.954 37.4117C184.145 37.1734 184.367 37.0464 184.622 37.0464C184.876 37.0464 185.09 37.1734 185.273 37.4275C185.424 37.6419 185.512 38.3645 185.519 39.6033V39.9447C185.519 41.4535 185.472 43.0734 185.384 44.7886C185.297 46.5038 185.202 47.4805 185.098 47.7266C185.011 47.9172 184.868 48.076 184.677 48.211C184.487 48.346 184.304 48.4095 184.121 48.4095C184.057 48.4095 184.01 48.4095 183.97 48.3937H183.954C183.954 48.3937 183.906 48.3778 183.898 48.3778C183.732 48.3778 183.406 48.4334 182.929 48.5525C182.548 48.6398 182.254 48.6875 182.055 48.6875C181.562 48.6875 181.038 48.5048 180.49 48.1316C180.212 47.9569 179.918 47.6472 179.616 47.2105C179.314 46.7738 179.107 46.3767 179.004 46.0194C178.916 45.7018 178.869 45.2571 178.869 44.6853C178.869 43.9389 178.94 43.3513 179.075 42.9305C179.202 42.5493 179.449 42.1523 179.806 41.7314C180.164 41.3105 180.506 41.0247 180.823 40.8738C181.205 40.6991 181.642 40.6038 182.142 40.6038C182.436 40.6038 182.699 40.6276 182.945 40.6832L183.517 40.7944L183.557 40.1274C183.557 40.0162 183.557 39.8098 183.565 39.5159C183.565 39.2221 183.581 39.0236 183.597 38.9283C183.612 38.4598 183.636 38.1343 183.676 37.9675C183.716 37.8008 183.811 37.6181 183.962 37.4275L183.954 37.4117ZM182.85 43.0654C182.572 42.8113 182.325 42.6843 182.103 42.6843C181.896 42.6843 181.697 42.7875 181.491 42.986C181.109 43.3831 180.919 43.8913 180.919 44.5265C180.919 44.9315 180.998 45.3047 181.165 45.6541C181.403 46.202 181.729 46.472 182.134 46.472C182.373 46.472 182.643 46.345 182.937 46.0909C183.08 45.9638 183.16 45.8209 183.191 45.6541C183.223 45.4874 183.239 45.1539 183.239 44.6456C183.239 44.0898 183.223 43.7325 183.183 43.5816C183.144 43.4307 183.032 43.256 182.842 43.0654H182.85Z" fill="black"/>
<path d="M187.935 40.4371C188.078 40.2941 188.237 40.2306 188.428 40.2306C188.746 40.2306 189.016 40.3735 189.246 40.6673C189.389 40.8579 189.477 41.1438 189.516 41.517C189.556 41.8902 189.58 42.8431 189.596 44.3677C189.612 44.9633 189.612 45.6462 189.612 46.4085C189.612 47.004 189.596 47.3931 189.564 47.5837C189.532 47.7663 189.461 47.9331 189.342 48.0681C189.127 48.3381 188.849 48.4651 188.499 48.4651C188.15 48.4651 187.887 48.3381 187.697 48.084C187.554 47.9093 187.474 47.6472 187.45 47.3058C187.427 46.9643 187.411 46.0511 187.411 44.5821C187.411 43.0178 187.442 42.0014 187.498 41.5329C187.554 41.0644 187.697 40.6991 187.927 40.445L187.935 40.4371ZM187.84 37.3164C188.007 37.1496 188.205 37.0702 188.428 37.0702C188.682 37.0702 188.912 37.1575 189.127 37.3402C189.334 37.5149 189.445 37.7293 189.445 37.9675C189.445 38.0787 189.429 38.1739 189.405 38.2375C189.326 38.4757 189.183 38.6822 188.976 38.8489C188.769 39.0157 188.555 39.0951 188.34 39.0951C188.277 39.0951 188.229 39.0951 188.189 39.0792C187.721 38.968 187.482 38.6583 187.482 38.166C187.482 37.8484 187.601 37.5705 187.848 37.3243L187.84 37.3164Z" fill="black"/>
<path d="M193.72 40.9374C194.141 40.7468 194.514 40.6515 194.848 40.6515C195.023 40.6515 195.174 40.6515 195.285 40.6674C195.841 40.715 196.286 40.8262 196.612 40.985C196.938 41.1438 197.232 41.4059 197.502 41.7791C198.011 42.4937 198.265 43.2957 198.265 44.201C198.265 45.2809 197.931 46.2338 197.264 47.0596C196.596 47.8855 195.77 48.2984 194.793 48.2984C194.769 48.2984 194.729 48.2984 194.681 48.2905C194.634 48.2905 194.586 48.2825 194.546 48.2825C193.656 48.2031 192.941 47.8219 192.409 47.1232C191.876 46.4244 191.606 45.6065 191.606 44.6615C191.606 43.6213 191.94 42.6843 192.599 41.8585C192.941 41.4376 193.315 41.1359 193.728 40.9453L193.72 40.9374ZM196.064 44.6854C196.088 44.5345 196.104 44.4154 196.104 44.3201C196.104 43.8992 196.008 43.526 195.818 43.1925C195.627 42.859 195.381 42.7002 195.071 42.7002C194.832 42.7002 194.602 42.8034 194.387 43.0019C193.958 43.3831 193.736 43.9072 193.736 44.5663C193.736 44.9712 193.831 45.3286 194.022 45.6303C194.212 45.9321 194.459 46.0909 194.769 46.0909C195.023 46.0909 195.293 45.94 195.571 45.6462C195.849 45.3444 196.016 45.0268 196.064 44.6854Z" fill="black"/>
<path d="M202.087 40.9691C202.429 40.8023 202.778 40.7229 203.136 40.7229C203.66 40.7229 204.097 40.8897 204.463 41.2311C204.828 41.5646 205.003 42.0014 205.003 42.5334C205.003 42.851 204.932 43.1051 204.796 43.2877C204.653 43.4704 204.487 43.5657 204.28 43.5657C204.026 43.5657 203.779 43.4307 203.533 43.1686C203.303 42.9145 203.12 42.7875 202.977 42.7875H202.937L202.897 42.8034C202.754 42.8669 202.691 42.9463 202.691 43.0336C202.691 43.2242 202.921 43.5895 203.374 44.1374C203.843 44.6933 204.161 45.1697 204.328 45.5509C204.502 45.9479 204.598 46.3211 204.598 46.6784C204.598 47.2899 204.391 47.806 203.97 48.2348C203.549 48.6636 203.04 48.8701 202.444 48.8701C202.079 48.8701 201.721 48.7907 201.38 48.6239C201.038 48.473 200.76 48.2507 200.561 47.9648C200.355 47.679 200.259 47.3852 200.259 47.0755C200.259 46.8055 200.355 46.5673 200.545 46.3529C200.752 46.1464 201.006 46.0511 201.308 46.0511C201.547 46.0511 201.777 46.1226 201.992 46.2576C202.103 46.337 202.19 46.3687 202.238 46.3687C202.278 46.3687 202.293 46.3529 202.293 46.3132C202.293 46.1464 202.111 45.8447 201.737 45.4C201.014 44.5265 200.649 43.7086 200.649 42.9622C200.649 42.0728 201.125 41.4137 202.079 40.977L202.087 40.9691Z" fill="black"/>
</svg>
